<svg xmlns="http://www.w3.org/2000/svg" width="782" height="518" viewBox="0 0 782 518" version="1.1"><path d="M 376.500 13.602 C 353.251 17.026, 337.789 20.660, 325 25.708 C 269.530 47.598, 229.797 92.791, 215.088 150.724 C 212.352 161.498, 212.380 163.835, 215.250 164.421 C 218.243 165.031, 233.777 166.741, 248 168.027 C 254.325 168.598, 260.518 169.286, 261.761 169.555 C 264.384 170.122, 264.577 169.748, 268.513 156.500 C 271.513 146.399, 278.855 131.019, 284.840 122.295 C 298.237 102.768, 314.571 88.878, 336.484 78.379 C 367.672 63.436, 401.506 61.252, 434.163 72.074 C 459.108 80.340, 483.081 97.881, 497.981 118.769 C 505.786 129.712, 514.030 146.621, 517.596 159 C 519.101 164.225, 520.595 168.800, 520.916 169.166 C 521.739 170.106, 571.082 165.185, 573.053 163.967 C 573.991 163.387, 573.876 161.539, 572.547 155.858 C 560.012 102.278, 527.385 59.942, 478.713 34.098 C 454.420 21.200, 426.267 14.198, 396 13.526 C 386.925 13.325, 378.150 13.359, 376.500 13.602 M 104.776 91.506 C 102.227 93.238, 100.900 95.014, 100.477 97.256 C 99.866 100.500, 99.866 100.500, 56.467 100.613 C 7.201 100.741, 8 100.621, 8 107.901 C 8 112.743, 9.444 113.960, 17.868 116.219 C 46.484 123.892, 66.005 126.067, 86 123.810 C 93.425 122.972, 99.838 122.474, 100.250 122.702 C 100.662 122.931, 101 128.941, 101 136.059 C 101 147.457, 100.802 149, 99.338 149 C 96.096 149, 89.293 153.878, 87.887 157.212 C 85.944 161.817, 85.943 195.582, 87.885 202.269 C 89.482 207.767, 94.925 213.901, 100.919 216.959 C 104.146 218.605, 106.815 218.998, 114.710 218.991 C 123.705 218.982, 124.916 218.743, 129.626 216.041 C 132.445 214.424, 136.134 211.357, 137.822 209.224 C 140.893 205.347, 140.893 205.347, 149.197 207.073 C 156.587 208.609, 167.933 211.209, 186.500 215.623 C 189.800 216.407, 196.050 217.848, 200.390 218.823 C 208.279 220.597, 208.279 220.597, 210.636 232.032 C 215.715 256.679, 226.049 280.483, 244.484 310 C 255.904 328.285, 277.054 359.859, 284.005 369 C 285.469 370.925, 288.693 375.425, 291.170 379 C 293.647 382.575, 300.809 392.629, 307.086 401.343 C 313.364 410.057, 320.075 419.383, 322 422.068 C 335.105 440.345, 374.332 493.714, 378.774 499.309 C 381.747 503.054, 385.293 506.541, 386.655 507.059 C 390.587 508.554, 397.322 508.162, 400.027 506.281 C 403.777 503.674, 401.650 506.396, 433 464.074 C 504.096 368.097, 535.656 322.335, 554.430 288 C 564.424 269.723, 573.251 245.669, 575.968 229.305 C 576.625 225.348, 577.688 221.702, 578.331 221.203 C 579.987 219.917, 638.316 206.025, 642.131 206.007 C 643.029 206.003, 644.969 207.582, 646.444 209.516 C 647.919 211.449, 651.460 214.370, 654.313 216.006 C 659.103 218.753, 660.257 218.982, 669.390 218.991 C 681.014 219.002, 685.705 217.214, 692.016 210.366 C 698.132 203.732, 699.225 198.388, 698.831 177.057 C 698.500 159.180, 698.500 159.180, 695.408 155.340 C 693.552 153.034, 690.656 150.913, 688.158 150.031 C 684 148.562, 684 148.562, 684 135.781 C 684 120.996, 682.464 122.059, 700.770 124.177 C 716.611 126.009, 737.329 123.536, 765.500 116.449 C 774.239 114.251, 776 112.811, 776 107.868 C 776 100.591, 776.650 100.693, 727.656 100.304 C 703.920 100.116, 684.427 99.633, 684.337 99.231 C 684.248 98.829, 683.911 97.300, 683.589 95.833 C 682.781 92.153, 677.370 89, 671.864 89 C 665.762 89, 660.245 92.774, 659.814 97.243 C 659.532 100.170, 659.196 100.483, 656.500 100.333 C 646.332 99.769, 609.322 99.855, 591.500 100.484 C 572.265 101.164, 570.311 101.400, 568.250 103.288 C 565.361 105.934, 565.361 110.080, 568.250 112.665 C 572.017 116.036, 598.969 122.237, 618 124.111 C 628.407 125.136, 632.892 125.095, 644.782 123.870 C 652.638 123.060, 659.275 122.609, 659.532 122.866 C 659.790 123.123, 660 129.003, 660 135.932 C 660 148.531, 660 148.531, 655.027 150.297 C 648.840 152.494, 644.953 157.240, 644.253 163.450 C 643.693 168.418, 645.141 167.911, 627 169.493 C 623.425 169.805, 614.650 170.700, 607.500 171.481 C 595.916 172.746, 576.890 174.626, 541 178.052 C 534.675 178.656, 525.450 179.547, 520.500 180.034 C 490.600 182.971, 485.713 183.284, 483.292 182.420 C 481.114 181.642, 480.228 179.961, 477.535 171.500 C 472.413 155.409, 466.424 145.436, 455.185 134.286 C 443.925 123.115, 431.286 115.906, 415.007 111.368 C 407.913 109.390, 404.207 109.002, 392.507 109.012 C 372.279 109.030, 359.879 112.703, 343.500 123.526 C 325.671 135.307, 314.854 149.896, 307.874 171.576 C 303.821 184.163, 303.845 184.150, 288.500 182.468 C 281.900 181.745, 267.275 180.226, 256 179.094 C 195.606 173.029, 195.503 173.019, 161.500 169.936 C 140.118 167.997, 141 168.192, 141 165.407 C 141 159.072, 135.530 152.320, 128.525 150.008 C 125 148.845, 125 148.845, 125 136.089 C 125 129.073, 125.209 123.124, 125.465 122.868 C 125.721 122.613, 131.908 123.062, 139.215 123.868 C 150.176 125.076, 154.820 125.125, 165.762 124.146 C 184.395 122.480, 213.108 116.074, 217.032 112.708 C 219.947 110.208, 219.343 105.324, 215.791 102.685 C 213.192 100.753, 211.317 100.657, 169.291 100.314 C 125.500 99.957, 125.500 99.957, 124.910 97.141 C 124.081 93.190, 123.488 92.459, 119.615 90.622 C 114.579 88.232, 109.116 88.557, 104.776 91.506 M 378.487 152.745 C 360.959 158.994, 348.867 173.445, 345.794 191.815 C 344.747 198.074, 344.812 200.296, 346.244 207.219 C 348.536 218.308, 352.223 225.357, 359.606 232.767 C 366.975 240.164, 375.172 244.369, 385.732 246.169 C 391.857 247.212, 394.234 247.156, 401.254 245.803 C 418.939 242.394, 432.484 230.122, 437.894 212.609 C 445.092 189.303, 433.115 164.031, 410.153 154.078 C 402.477 150.751, 386.023 150.058, 378.487 152.745 M 267 234.840 C 267 236.157, 276.816 257.221, 280.356 263.500 C 285.765 273.094, 294.519 286.003, 302.082 295.535 C 315.338 312.244, 352.597 348.091, 380.846 371.316 C 387.692 376.945, 390.960 379, 393.066 379 C 395.250 379, 398.877 376.538, 408.166 368.750 C 414.889 363.113, 423.340 356.059, 426.945 353.076 C 430.550 350.092, 443.643 337.492, 456.040 325.076 C 482.701 298.372, 494.996 282.758, 507.284 260 C 511.666 251.884, 518 237.233, 518 235.212 C 518 233.732, 480.109 243.852, 475.470 246.570 C 473.206 247.897, 466.750 253.924, 461.125 259.963 C 445.597 276.630, 428.966 286.563, 409.746 290.650 C 399.750 292.775, 380.265 291.971, 370 289.009 C 353.985 284.388, 338.299 274.747, 327.130 262.658 C 316.873 251.557, 313.059 248.071, 308.758 245.865 C 304.593 243.729, 267 233.804, 267 234.840" stroke="none" fill="#FFFFFF" fill-rule="evenodd"/></svg>

